HIERARCHY
ROOT Hips
{
	OFFSET 0.000000 0.000000 0.000000 
	CHANNELS 6 Xposition Yposition Zposition Zrotation Yrotation Xrotation
	JOINT LeftUpLeg
	{
		OFFSET 1.363060 -1.794630 0.839290 
		CHANNELS 3 Zrotation Yrotation Xrotation
		JOINT LeftLeg
		{
			OFFSET 2.448110 -6.726130 0.000000 
			CHANNELS 3 Zrotation Yrotation Xrotation
			JOINT LeftFoot
			{
				OFFSET 2.562200 -7.039590 0.000000 
				CHANNELS 3 Zrotation Yrotation Xrotation
				JOINT LeftToeBase
				{
					OFFSET 0.157640 -0.433110 2.322550 
					CHANNELS 3 Zrotation Yrotation Xrotation
					End Site
					{
						OFFSET 0.000000 0.000000 0.000000 
					}
				}
			}
		}
	}
	JOINT RightUpLeg
	{
		OFFSET -1.305520 -1.794630 0.839290 
		CHANNELS 3 Zrotation Yrotation Xrotation
		JOINT RightLeg
		{
			OFFSET -2.542530 -6.985550 0.000000 
			CHANNELS 3 Zrotation Yrotation Xrotation
			JOINT RightFoot
			{
				OFFSET -2.568260 -7.056230 0.000000 
				CHANNELS 3 Zrotation Yrotation Xrotation
				JOINT RightToeBase
				{
					OFFSET -0.164730 -0.452590 2.363150 
					CHANNELS 3 Zrotation Yrotation Xrotation
					End Site
					{
						OFFSET 0.000000 0.000000 0.000000 
					}
				}
			}
		}
	}
	JOINT Spine
	{
		OFFSET 0.028270 2.035590 -0.193380 
		CHANNELS 3 Zrotation Yrotation Xrotation
		JOINT Spine1
		{
			OFFSET 0.056720 2.048850 -0.042750 
			CHANNELS 3 Zrotation Yrotation Xrotation
			JOINT Neck1
			{
				OFFSET -0.054170 1.746240 0.172020 
				CHANNELS 3 Zrotation Yrotation Xrotation
				JOINT Head
				{
					OFFSET 0.104070 1.761360 -0.123970 
					CHANNELS 3 Zrotation Yrotation Xrotation
					End Site
					{
						OFFSET 0.000000 0.000000 0.000000 
					}
				}
			}
			JOINT LeftArm
			{
				OFFSET 3.362410 1.200890 -0.311210 
				CHANNELS 3 Zrotation Yrotation Xrotation
				JOINT LeftForeArm
				{
					OFFSET 4.983000 -0.000000 -0.000000 
					CHANNELS 3 Zrotation Yrotation Xrotation
					JOINT LeftHand
					{
						OFFSET 3.483560 -0.000000 -0.000000 
						CHANNELS 3 Zrotation Yrotation Xrotation
						JOINT LeftHandIndex1
						{
							OFFSET 0.715260 -0.000000 -0.000000 
							CHANNELS 3 Zrotation Yrotation Xrotation
							End Site
							{
								OFFSET 0.000000 0.000000 0.000000 
							}
						}
					}
				}
			}
			JOINT RightArm
			{
				OFFSET -3.136600 1.374050 -0.404650 
				CHANNELS 3 Zrotation Yrotation Xrotation
				JOINT RightForeArm
				{
					OFFSET -5.241900 -0.000000 -0.000000 
					CHANNELS 3 Zrotation Yrotation Xrotation
					JOINT RightHand
					{
						OFFSET -3.444170 -0.000000 -0.000000 
						CHANNELS 3 Zrotation Yrotation Xrotation
						JOINT RightHandIndex1
						{
							OFFSET -0.622530 -0.000000 -0.000000 
							CHANNELS 3 Zrotation Yrotation Xrotation
							End Site
							{
								OFFSET 0.000000 0.000000 0.000000 
							}
						}
					}
				}
			}
		}
	}
}
MOTION
Frames: 12
Frame Time: 0.041667
-13.855868 17.496869 8.288993 -4.551723 -3.364633 3.522113 -7.067918 1.820460 -13.611513 2.453679 12.515971 34.714189 0.120675 5.009322 -17.487761 0.322800 -3.652100 -10.100000 20.739896 -4.330457 -17.697934 -3.334730 -13.259639 36.981645 -1.747762 5.228602 -12.355580 -0.822000 -5.784700 16.160900 2.253740 -3.590258 -3.689652 5.362704 -1.715838 -1.567152 4.727654 -15.815693 10.875145 3.440000 -8.363200 9.095800 -90.538038 3.830615 12.708919 13.979494 -24.728515 -3.335314 -0.014530 0.280305 0.230047 -7.125000 0.000000 0.000000 81.703810 -3.659340 18.582894 -12.806884 21.203582 -2.839708 0.509818 -0.304384 -6.082379 7.125000 0.000000 0.000000 
-13.867786 17.494526 8.296123 -4.473811 -3.371184 3.654656 -7.083480 1.702959 -13.690882 2.443455 12.503598 34.678070 0.152148 4.905510 -17.611159 0.283100 -3.422000 -9.456000 20.713390 -4.109738 -17.783940 -3.340752 -13.267471 37.021958 -1.713941 4.983363 -12.479914 -0.815600 -5.762900 16.097900 2.243274 -3.513191 -3.670194 5.396381 -1.684807 -1.352118 4.618622 -15.483861 11.310233 3.329600 -8.186500 9.380600 -90.490129 3.567377 12.749941 13.929701 -24.666825 -3.318718 -0.013887 0.282355 0.032140 -7.125000 0.000000 0.000000 81.718304 -3.455289 18.575118 -12.924644 21.344566 -2.880191 0.507576 -0.278059 -6.257111 7.125000 0.000000 0.000000 
-13.887445 17.497174 8.305596 -4.528006 -3.589190 3.871965 -6.957143 1.747474 -13.892790 2.448990 12.501131 34.690751 0.130421 5.019360 -17.625364 0.275600 -3.376500 -9.328700 20.859219 -3.426971 -17.718236 -3.326820 -13.255083 36.990272 -1.679470 4.703085 -12.701943 -0.913300 -6.089400 17.043900 2.250980 -3.311548 -3.679226 5.457727 -1.587799 -1.192860 4.317174 -15.156247 11.854913 3.103600 -8.021100 9.672200 -90.448847 3.390139 12.758076 13.878518 -24.608351 -3.302071 -0.014774 0.284571 0.113681 -7.125000 0.000000 0.000000 81.715085 -3.430538 18.546925 -13.057022 21.504336 -2.925193 0.509451 -0.242427 -6.403139 7.125000 0.000000 0.000000 
-13.904659 17.499721 8.315477 -4.615361 -3.771434 3.956426 -6.822592 1.832108 -13.942357 2.450952 12.497214 34.687550 0.090924 5.198547 -17.585453 0.307300 -3.563800 -9.852500 21.024606 -3.060001 -17.626670 -3.325008 -13.254738 36.989067 -1.696305 4.716854 -12.900879 -0.982200 -6.308400 17.681800 2.285028 -3.193567 -3.710343 5.590452 -1.528461 -1.202091 4.031923 -14.648391 12.374169 2.944900 -7.793100 9.871600 -90.492208 3.411260 12.681503 13.802960 -24.522975 -3.277008 -0.013021 0.287287 -0.020762 -7.125000 0.000000 0.000000 81.649864 -3.396271 18.412778 -13.027401 21.454919 -2.915241 0.506330 -0.267308 -6.328532 7.125000 0.000000 0.000000 
-13.912808 17.500943 8.326681 -4.526355 -3.785144 3.955102 -6.897035 1.885790 -13.907845 2.453043 12.505580 34.707749 0.090895 5.224699 -17.637074 0.360900 -3.859300 -10.681200 20.983141 -3.263467 -17.671238 -3.321515 -13.251013 36.973922 -1.681127 4.609774 -12.945438 -0.822600 -5.786900 16.167400 2.291450 -3.194677 -3.702730 5.675457 -1.533145 -1.085000 3.965096 -14.138742 12.827892 2.935500 -7.563000 10.093900 -90.500861 3.410297 12.723702 13.763093 -24.482773 -3.263861 -0.013101 0.288133 -0.438918 -7.125000 0.000000 0.000000 81.617991 -3.145731 18.239029 -12.933984 21.323196 -2.881959 0.505439 -0.298494 -6.152008 7.125000 0.000000 0.000000 
-13.914845 17.499823 8.339923 -4.546430 -3.687186 4.064481 -6.850009 1.858792 -13.986744 2.454866 12.502139 34.708555 0.106534 5.165590 -17.683740 0.361300 -3.861600 -10.687500 21.036589 -3.543341 -17.860690 -3.320656 -13.248561 36.971335 -1.655203 4.474880 -12.924723 -0.694100 -5.325800 14.840200 2.296134 -3.210287 -3.687719 5.615353 -1.547236 -0.885670 3.881565 -13.644647 13.258977 2.907700 -7.335100 10.313300 -90.525081 3.274174 12.614121 13.698469 -24.399144 -3.239008 -0.011615 0.286934 -0.593065 -7.125000 0.000000 0.000000 81.617602 -2.903664 18.127680 -12.796122 21.134533 -2.830547 0.513534 -0.319875 -6.241634 7.125000 0.000000 0.000000 
-13.916271 17.496767 8.351943 -4.794437 -3.559996 4.157117 -6.568993 1.748285 -14.008402 2.458295 12.490162 34.696849 0.109479 5.169092 -17.736542 0.361800 -3.864000 -10.694400 21.277379 -3.658555 -17.962910 -3.329704 -13.253346 36.989465 -1.718987 4.854470 -12.874853 -0.813900 -5.756900 16.080600 2.342235 -3.195252 -3.747765 5.556718 -1.537578 -1.059653 3.698831 -13.008696 13.701459 2.864000 -7.067000 10.428000 -90.658632 3.407949 12.347860 13.654961 -24.336186 -3.220824 -0.013588 0.287274 -0.354882 -7.125000 0.000000 0.000000 81.489842 -3.145283 18.126964 -12.759141 21.098899 -2.822034 0.515164 -0.347468 -6.461170 7.125000 0.000000 0.000000 
-13.918716 17.493100 8.366101 -4.728779 -3.385866 4.153896 -6.626992 1.771780 -13.996494 2.466756 12.497331 34.724763 0.145966 4.985911 -17.736598 0.349600 -3.799000 -10.511900 21.155718 -4.104556 -18.076601 -3.342960 -13.254805 36.994547 -1.829769 5.494902 -12.804179 -0.941200 -6.179300 17.305500 2.348343 -3.231009 -3.794652 5.528781 -1.555954 -1.190829 3.544847 -12.353882 14.180610 2.812200 -6.779500 10.586900 -90.696019 3.552123 12.232946 13.652241 -24.333784 -3.219892 -0.019577 0.288501 -0.179652 -7.125000 0.000000 0.000000 81.402782 -3.315309 18.110804 -12.822006 21.187816 -2.847385 0.512554 -0.348123 -6.475221 7.125000 0.000000 0.000000 
-13.926865 17.491674 8.373945 -4.639542 -3.217052 4.152263 -6.676959 1.825774 -14.029523 2.480108 12.506625 34.760870 0.189389 4.725676 -17.651718 0.294600 -3.490200 -9.646600 21.082617 -4.453193 -18.200817 -3.349586 -13.256078 36.999190 -1.868945 5.706884 -12.807065 -0.979500 -6.300100 17.657600 2.337761 -3.257544 -3.790301 5.470478 -1.579192 -1.056976 3.341956 -11.763907 14.803423 2.637700 -6.483100 10.961100 -90.626983 3.371493 12.228901 13.582415 -24.240547 -3.194131 -0.014991 0.288332 -0.340492 -7.125000 0.000000 0.000000 81.499500 -3.013846 17.901570 -12.807518 21.131399 -2.833730 0.516413 -0.325317 -6.345020 7.125000 0.000000 0.000000 
-13.942042 17.494119 8.382093 -4.966214 -3.180492 4.191938 -6.267211 2.057829 -14.095181 2.501059 12.499810 34.771102 0.186798 4.649135 -17.476726 0.361400 -3.861700 -10.688000 21.527589 -4.264980 -18.180511 -3.352633 -13.269224 37.034374 -1.851991 5.565793 -12.951052 -1.048300 -6.510800 18.273900 2.374004 -3.177648 -3.787797 5.378345 -1.551747 -0.882563 3.125574 -11.167620 15.604653 2.448600 -6.185200 11.513700 -90.568725 3.135480 12.231114 13.451834 -24.056951 -3.141949 -0.011232 0.286461 -0.460008 -7.125000 0.000000 0.000000 81.567795 -2.811436 17.766171 -12.843587 21.151555 -2.841927 0.516665 -0.309378 -6.380086 7.125000 0.000000 0.000000 
-13.958747 17.495443 8.403586 -4.971308 -3.235841 4.155070 -6.217726 2.451600 -14.072846 2.520035 12.513356 34.812257 0.204426 4.521229 -17.396854 0.473600 -4.413700 -12.243500 21.586904 -4.246722 -18.040498 -3.360714 -13.284111 37.067285 -1.876988 5.638511 -13.108612 -1.098700 -6.660700 18.714100 2.381398 -3.101207 -3.746196 5.406106 -1.525136 -0.576485 3.104393 -10.535852 16.362026 2.445600 -5.895500 12.036100 -90.540258 2.843111 12.162191 13.242831 -23.781863 -3.062926 -0.010637 0.284901 -0.307786 -7.125000 0.000000 0.000000 81.536529 -2.699272 17.680541 -12.888758 21.213135 -2.859798 0.512795 -0.306761 -6.404253 7.125000 0.000000 0.000000 
-13.974841 17.490553 8.418254 -4.630687 -3.303587 4.110776 -6.513216 2.414220 -13.983225 2.528485 12.545051 34.885535 0.262913 4.292638 -17.535790 0.384000 -3.979600 -11.019400 21.254575 -4.200438 -17.883050 -3.363326 -13.287819 37.074126 -1.883885 5.614570 -13.215269 -1.094700 -6.648700 18.678800 2.348466 -3.057035 -3.689326 5.543940 -1.506968 -0.398434 3.469240 -9.761927 16.669284 2.770500 -5.559000 12.094700 -90.458430 2.612911 12.129636 13.067621 -23.566954 -3.000383 -0.005904 0.281803 -0.106743 -7.125000 0.000000 0.000000 81.541552 -2.569001 17.625837 -12.873039 21.196868 -2.853722 0.524920 -0.307203 -6.491469 7.125000 0.000000 0.000000 
